<svg width="407" height="229" viewBox="0 0 407 229" fill="none" xmlns="http://www.w3.org/2000/svg">
<rect width="407" height="229" fill="#EDF7FA"/>
<g clip-path="url(#clip0_2032_3564)">
<path d="M166.137 193.885C164.903 193.885 163.667 193.606 162.706 193.049C161.665 192.451 161.092 191.613 161.092 190.692C161.092 189.771 161.664 188.934 162.702 188.337C164.625 187.23 167.635 187.23 169.558 188.337C170.599 188.939 171.171 189.778 171.17 190.698C171.169 191.619 170.599 192.456 169.561 193.054C168.601 193.607 167.368 193.885 166.137 193.885ZM166.129 188.819C165.118 188.819 164.108 189.038 163.356 189.471C162.749 189.82 162.399 190.267 162.399 190.692C162.399 191.117 162.75 191.571 163.359 191.916C164.865 192.788 167.405 192.795 168.908 191.916C169.514 191.568 169.862 191.121 169.862 190.695C169.862 190.269 169.513 189.816 168.903 189.466C168.152 189.037 167.14 188.819 166.129 188.819Z" fill="#0C6DC2"/>
<path d="M303.352 88.3599C303.303 88.3602 303.254 88.3547 303.207 88.3434C301.83 88.0507 300.424 87.9089 299.017 87.9204C299 87.9215 298.984 87.9215 298.967 87.9204C297.576 87.9093 296.189 88.05 294.828 88.3401C294.7 88.3715 294.566 88.3625 294.443 88.3143C294.32 88.2661 294.215 88.1811 294.143 88.0709C294.07 87.9621 294.031 87.834 294.031 87.7029C294.031 87.5717 294.07 87.4436 294.143 87.3348C294.562 86.7012 294.784 85.9582 294.783 85.1987C294.782 84.4392 294.558 83.6968 294.137 83.0643C294.064 82.9556 294.025 82.8277 294.025 82.6968C294.025 82.5659 294.064 82.4379 294.137 82.3293C294.21 82.2193 294.315 82.1345 294.438 82.0863C294.56 82.0381 294.695 82.029 294.823 82.0601C297.269 82.6094 300.793 82.6094 303.202 82.0601C303.33 82.0292 303.465 82.0385 303.587 82.0866C303.71 82.1348 303.814 82.2195 303.887 82.3293C303.961 82.4376 304 82.5657 304 82.6968C304 82.8279 303.961 82.956 303.887 83.0643C303.467 83.6973 303.243 84.44 303.243 85.1995C303.243 85.9591 303.467 86.7018 303.887 87.3348C303.952 87.4335 303.989 87.5478 303.995 87.6658C304.001 87.7839 303.974 87.9012 303.919 88.0057C303.864 88.1101 303.782 88.1978 303.681 88.2595C303.58 88.3213 303.465 88.3548 303.346 88.3566L303.352 88.3599ZM299.019 86.613C300.082 86.6104 301.145 86.6839 302.198 86.8327C302.026 86.3074 301.939 85.7583 301.939 85.2056C301.937 84.6523 302.023 84.1022 302.195 83.5763C300.084 83.8614 297.944 83.8614 295.833 83.5763C296.176 84.6342 296.176 85.7736 295.833 86.8316C296.888 86.6813 297.953 86.6079 299.019 86.6119V86.613Z" fill="#0C6DC2"/>
<path d="M197.223 48.0122C197.05 48.0108 196.884 47.9414 196.762 47.8192C196.64 47.6969 196.57 47.5314 196.569 47.3585L196.563 40.2787C196.563 40.1929 196.58 40.1079 196.613 40.0286C196.646 39.9493 196.694 39.8772 196.754 39.8165C196.815 39.7558 196.887 39.7076 196.966 39.6748C197.045 39.6419 197.13 39.625 197.216 39.625C197.39 39.625 197.557 39.6937 197.68 39.8161C197.804 39.9386 197.874 40.1048 197.875 40.2787V47.3585C197.875 47.4443 197.859 47.5293 197.826 47.6086C197.793 47.6879 197.745 47.76 197.685 47.8207C197.624 47.8814 197.552 47.9296 197.473 47.9624C197.393 47.9953 197.308 48.0122 197.223 48.0122Z" fill="#0C6DC2"/>
<path d="M203.35 44.4742H191.089C190.93 44.4545 190.783 44.3771 190.676 44.2566C190.57 44.1361 190.511 43.9808 190.511 43.8199C190.511 43.659 190.57 43.5037 190.676 43.3832C190.783 43.2627 190.93 43.1853 191.089 43.1657H203.35C203.443 43.1536 203.538 43.1615 203.628 43.1888C203.717 43.2161 203.8 43.2622 203.87 43.3241C203.941 43.386 203.997 43.4622 204.036 43.5476C204.075 43.633 204.095 43.7256 204.095 43.8194C204.095 43.9131 204.075 44.0058 204.036 44.0912C203.997 44.1766 203.941 44.2527 203.87 44.3146C203.8 44.3765 203.717 44.4226 203.628 44.4499C203.538 44.4773 203.443 44.4851 203.35 44.4731V44.4742Z" fill="#0C6DC2"/>
<path d="M273.915 178.652C273.74 178.652 273.573 178.583 273.449 178.459C273.325 178.335 273.256 178.168 273.256 177.993V170.914C273.256 170.739 273.325 170.572 273.449 170.448C273.573 170.324 273.74 170.255 273.915 170.255C274.089 170.256 274.255 170.326 274.378 170.45C274.5 170.573 274.569 170.74 274.569 170.914V177.993C274.569 178.167 274.5 178.334 274.378 178.457C274.255 178.58 274.089 178.651 273.915 178.652Z" fill="#0C6DC2"/>
<path d="M280.049 175.121H267.788C267.628 175.101 267.481 175.024 267.374 174.903C267.268 174.783 267.209 174.628 267.209 174.467C267.209 174.306 267.268 174.151 267.374 174.03C267.481 173.91 267.628 173.832 267.788 173.812H280.049C280.208 173.833 280.353 173.911 280.459 174.031C280.565 174.151 280.623 174.306 280.623 174.466C280.623 174.626 280.565 174.781 280.459 174.901C280.353 175.022 280.208 175.099 280.049 175.12V175.121Z" fill="#0C6DC2"/>
<path d="M130.2 158.629C130.213 156.732 128.965 154.826 126.452 153.374C121.455 150.49 113.366 150.487 108.383 153.365C105.896 154.798 104.654 156.681 104.653 158.565V162.658C104.661 164.541 105.911 166.428 108.406 167.865C113.402 170.749 121.488 170.756 126.472 167.879C128.978 166.431 130.219 164.53 130.2 162.631V158.629Z" fill="#B2E0FF"/>
<path d="M117.461 170.673C114.065 170.673 110.668 169.925 108.079 168.432C105.459 166.921 104.014 164.872 104 162.662V158.565C104 156.353 105.443 154.304 108.058 152.798C113.212 149.822 121.611 149.825 126.779 152.808C129.421 154.334 130.868 156.403 130.854 158.631V162.631C130.878 164.855 129.437 166.916 126.8 168.446C124.226 169.931 120.845 170.673 117.461 170.673ZM117.4 151.857C114.252 151.857 111.106 152.548 108.711 153.932C106.514 155.195 105.305 156.842 105.305 158.565V162.659C105.313 164.381 106.529 166.032 108.73 167.298C113.539 170.076 121.348 170.082 126.144 167.311C128.355 166.035 129.563 164.377 129.544 162.638V158.624C129.556 156.884 128.341 155.218 126.123 153.942C123.718 152.553 120.559 151.857 117.4 151.857Z" fill="#0C6DC2"/>
<path d="M126.456 153.375C125.845 153.029 125.208 152.73 124.552 152.479V168.785C125.215 168.532 125.858 168.229 126.476 167.879C128.982 166.431 130.223 164.531 130.203 162.631V158.63C130.213 156.732 128.965 154.826 126.456 153.375Z" fill="#0C6DC2"/>
<path d="M124.548 169.439C124.417 169.44 124.288 169.402 124.178 169.329C124.091 169.269 124.02 169.188 123.97 169.094C123.921 169 123.895 168.896 123.895 168.79V152.48C123.894 152.374 123.92 152.269 123.969 152.175C124.019 152.081 124.09 152.001 124.178 151.941C124.266 151.881 124.366 151.843 124.472 151.831C124.577 151.818 124.684 151.832 124.783 151.87C125.471 152.132 126.138 152.445 126.777 152.809C129.421 154.336 130.869 156.405 130.852 158.632V162.627C130.877 164.851 129.436 166.912 126.798 168.443C126.151 168.808 125.477 169.125 124.782 169.391C124.708 169.421 124.629 169.437 124.548 169.439ZM125.202 153.466V167.8C125.532 167.645 125.852 167.481 126.147 167.312C128.357 166.036 129.565 164.378 129.546 162.638V158.631C129.558 156.885 128.343 155.225 126.125 153.943C125.839 153.778 125.529 153.619 125.202 153.466Z" fill="#0C6DC2"/>
<path d="M117.426 146.802C110.373 146.802 104.653 151.978 104.653 158.585C104.653 162.658 110.373 165.957 117.426 165.957C124.48 165.957 130.203 162.661 130.203 158.585C130.203 151.978 124.483 146.802 117.426 146.802Z" fill="white"/>
<path d="M117.427 166.611C109.898 166.611 104 163.085 104 158.585C104 151.61 109.898 146.148 117.427 146.148C124.956 146.148 130.857 151.61 130.857 158.585C130.857 163.085 124.958 166.611 117.427 166.611ZM117.427 147.456C110.63 147.456 105.307 152.344 105.307 158.585C105.307 162.29 110.744 165.304 117.427 165.304C124.11 165.304 129.549 162.29 129.549 158.585C129.549 152.344 124.224 147.456 117.427 147.456Z" fill="#0C6DC2"/>
<path d="M293.721 124.99L232.463 74.5L119.424 120.181V127.156L180.681 177.642L293.721 131.964V124.99Z" fill="white"/>
<path d="M180.683 178.297C180.531 178.297 180.384 178.244 180.267 178.147L119.009 127.661C118.935 127.6 118.875 127.523 118.834 127.436C118.793 127.348 118.771 127.253 118.771 127.157V120.183C118.771 120.053 118.81 119.925 118.883 119.818C118.956 119.71 119.059 119.626 119.179 119.576L232.219 73.8958C232.328 73.8527 232.446 73.8394 232.562 73.8574C232.678 73.8753 232.787 73.9239 232.878 73.998L294.137 124.489C294.212 124.55 294.272 124.627 294.314 124.715C294.355 124.802 294.376 124.897 294.376 124.994V131.968C294.376 132.098 294.337 132.225 294.264 132.333C294.191 132.441 294.088 132.525 293.967 132.573L180.928 178.249C180.85 178.281 180.766 178.297 180.683 178.297ZM120.083 126.848L180.798 176.896L293.068 131.521V125.296L232.348 75.2538L120.083 120.623V126.848Z" fill="#0C6DC2"/>
<path d="M180.681 170.667L119.424 120.181L232.463 74.5L293.721 124.99L180.681 170.667Z" fill="#B2E0FF"/>
<path d="M180.682 171.322C180.531 171.323 180.384 171.27 180.267 171.173L119.009 120.687C118.923 120.614 118.857 120.52 118.817 120.415C118.778 120.309 118.766 120.195 118.783 120.084C118.8 119.972 118.845 119.867 118.915 119.778C118.984 119.69 119.075 119.62 119.179 119.576L232.219 73.8958C232.328 73.8527 232.446 73.8394 232.562 73.8574C232.678 73.8753 232.787 73.9239 232.878 73.998L294.137 124.489C294.225 124.561 294.292 124.654 294.333 124.76C294.373 124.865 294.386 124.98 294.369 125.091C294.351 125.204 294.305 125.309 294.235 125.398C294.164 125.487 294.072 125.556 293.967 125.599L180.927 171.275C180.849 171.306 180.766 171.322 180.682 171.322ZM120.689 120.377L180.798 169.916L292.464 124.797L232.348 75.2538L120.689 120.377Z" fill="#0C6DC2"/>
<path d="M180.682 170.667V177.642L293.721 131.963V124.99L180.682 170.667Z" fill="#0C6DC2"/>
<path d="M180.683 178.296C180.508 178.296 180.34 178.226 180.217 178.103C180.093 177.979 180.023 177.812 180.023 177.637V170.662C180.024 170.532 180.063 170.405 180.136 170.297C180.209 170.189 180.312 170.105 180.432 170.056L293.472 124.379C293.571 124.337 293.679 124.321 293.785 124.333C293.892 124.344 293.994 124.382 294.083 124.444C294.171 124.503 294.244 124.584 294.294 124.678C294.345 124.773 294.371 124.878 294.37 124.985V131.96C294.371 132.09 294.332 132.217 294.259 132.325C294.186 132.433 294.083 132.517 293.962 132.565L180.928 178.249C180.85 178.28 180.767 178.296 180.683 178.296ZM181.336 171.108V176.675L293.068 131.52V125.955L181.336 171.108Z" fill="#0C6DC2"/>
<path d="M290.49 105.927L214.988 62.3359L117.427 118.666V125.641L192.926 169.231L290.49 112.901V105.927Z" fill="white"/>
<path d="M192.925 169.884C192.809 169.885 192.695 169.855 192.595 169.798L117.1 126.208C117 126.151 116.918 126.068 116.86 125.969C116.802 125.869 116.771 125.756 116.771 125.641V118.666C116.771 118.551 116.802 118.437 116.86 118.338C116.917 118.238 117 118.155 117.1 118.098L214.662 61.768C214.762 61.7101 214.876 61.6797 214.991 61.6797C215.107 61.6797 215.221 61.7101 215.321 61.768L290.816 105.36C290.915 105.417 290.998 105.5 291.056 105.599C291.114 105.699 291.145 105.812 291.145 105.927V112.901C291.145 113.016 291.114 113.129 291.056 113.228C290.998 113.328 290.915 113.41 290.816 113.468L193.254 169.798C193.154 169.855 193.04 169.885 192.925 169.884ZM118.081 125.263L192.925 168.476L289.834 112.523V106.305L214.989 63.0908L118.087 119.045L118.081 125.263Z" fill="#0C6DC2"/>
<path d="M192.926 162.256L117.427 118.666L214.988 62.3359L290.49 105.927L192.926 162.256Z" fill="white"/>
<path d="M192.925 162.91C192.809 162.911 192.695 162.881 192.595 162.823L117.1 119.234C117.001 119.175 116.92 119.092 116.863 118.993C116.806 118.893 116.776 118.781 116.776 118.666C116.776 118.552 116.806 118.439 116.863 118.34C116.92 118.24 117.001 118.157 117.1 118.099L214.662 61.769C214.762 61.7111 214.876 61.6807 214.991 61.6807C215.107 61.6807 215.221 61.7111 215.321 61.769L290.816 105.36C290.914 105.418 290.996 105.501 291.052 105.6C291.109 105.7 291.139 105.812 291.139 105.927C291.139 106.041 291.109 106.153 291.052 106.253C290.996 106.352 290.914 106.435 290.816 106.493L193.254 162.823C193.154 162.881 193.04 162.911 192.925 162.91ZM118.735 118.666L192.925 161.502L289.18 105.927L214.987 63.0907L118.735 118.666Z" fill="#0C6DC2"/>
<path d="M213.667 104.257L186.333 88.4723L213.444 72.8174L240.781 88.6019L213.667 104.257ZM231.66 130.302L172.772 96.3014L153.658 107.335L212.547 141.336L231.66 130.302Z" fill="#B2E0FF"/>
<path d="M190.35 150.047C190.234 150.047 190.121 150.017 190.02 149.96L135.25 118.341C135.12 118.244 135.03 118.104 134.997 117.945C134.964 117.787 134.991 117.622 135.071 117.482C135.152 117.342 135.282 117.236 135.435 117.185C135.589 117.134 135.756 117.142 135.904 117.206L190.674 148.826C190.795 148.901 190.889 149.013 190.941 149.145C190.994 149.277 191.002 149.423 190.965 149.56C190.928 149.697 190.847 149.819 190.735 149.907C190.624 149.994 190.486 150.044 190.344 150.047H190.35ZM198.989 149.819C198.874 149.819 198.76 149.789 198.66 149.732L139.771 115.731C139.643 115.635 139.554 115.494 139.521 115.336C139.489 115.179 139.516 115.014 139.596 114.875C139.676 114.735 139.805 114.63 139.958 114.579C140.111 114.528 140.277 114.534 140.425 114.598L199.314 148.598C199.435 148.672 199.529 148.784 199.581 148.916C199.634 149.048 199.642 149.194 199.605 149.331C199.568 149.469 199.487 149.59 199.375 149.678C199.263 149.766 199.126 149.815 198.984 149.819H198.989ZM199.387 144.83C199.272 144.83 199.158 144.8 199.058 144.743L144.287 113.123C144.158 113.026 144.069 112.886 144.037 112.728C144.004 112.57 144.031 112.406 144.112 112.267C144.192 112.127 144.321 112.022 144.473 111.971C144.626 111.92 144.792 111.926 144.941 111.989L199.716 143.605C199.837 143.679 199.931 143.791 199.983 143.923C200.036 144.055 200.044 144.201 200.007 144.338C199.97 144.475 199.889 144.597 199.777 144.685C199.666 144.773 199.528 144.822 199.386 144.825L199.387 144.83ZM208.029 144.598C207.914 144.598 207.8 144.568 207.7 144.511L148.811 110.51C148.679 110.415 148.588 110.273 148.554 110.113C148.52 109.954 148.547 109.787 148.629 109.646C148.711 109.505 148.842 109.399 148.998 109.35C149.153 109.3 149.322 109.309 149.47 109.377L208.359 143.377C208.48 143.452 208.574 143.563 208.626 143.695C208.679 143.828 208.687 143.973 208.65 144.111C208.613 144.248 208.533 144.369 208.421 144.457C208.309 144.545 208.171 144.594 208.029 144.598ZM232.058 125.967C231.943 125.967 231.829 125.937 231.729 125.88L176.961 94.2601C176.829 94.1641 176.738 94.0226 176.704 93.8629C176.67 93.7032 176.697 93.5367 176.779 93.3957C176.861 93.2546 176.992 93.1489 177.148 93.0992C177.303 93.0494 177.472 93.0591 177.62 93.1263L232.39 124.746C232.515 124.818 232.613 124.929 232.668 125.062C232.724 125.196 232.733 125.344 232.696 125.483C232.658 125.623 232.575 125.746 232.46 125.833C232.345 125.921 232.205 125.967 232.06 125.967H232.058ZM240.698 125.739C240.582 125.739 240.469 125.709 240.368 125.651L181.48 91.6519C181.35 91.5556 181.26 91.4149 181.227 91.2566C181.194 91.0982 181.22 90.9332 181.301 90.7931C181.382 90.6529 181.511 90.5473 181.665 90.4964C181.818 90.4455 181.985 90.4528 182.134 90.517L241.022 124.517C241.144 124.592 241.238 124.703 241.291 124.836C241.344 124.968 241.352 125.114 241.315 125.252C241.278 125.389 241.197 125.511 241.085 125.599C240.973 125.687 240.835 125.736 240.693 125.739H240.698ZM241.099 120.75C240.983 120.75 240.87 120.72 240.77 120.662L218.624 107.875C218.54 107.837 218.465 107.782 218.403 107.713C218.342 107.644 218.296 107.563 218.267 107.475C218.239 107.387 218.23 107.294 218.24 107.203C218.25 107.111 218.279 107.022 218.325 106.943C218.372 106.863 218.434 106.794 218.509 106.74C218.584 106.686 218.669 106.648 218.759 106.629C218.85 106.61 218.943 106.61 219.033 106.629C219.123 106.649 219.208 106.687 219.283 106.741L241.429 119.528C241.55 119.603 241.645 119.714 241.698 119.847C241.75 119.979 241.759 120.125 241.722 120.263C241.685 120.4 241.604 120.522 241.492 120.61C241.379 120.698 241.242 120.747 241.099 120.75ZM249.738 120.518C249.622 120.518 249.509 120.488 249.408 120.431L223.14 105.27C223.056 105.232 222.981 105.177 222.92 105.108C222.858 105.039 222.812 104.958 222.784 104.87C222.756 104.782 222.746 104.69 222.756 104.598C222.766 104.506 222.796 104.418 222.842 104.338C222.888 104.258 222.951 104.189 223.026 104.135C223.1 104.081 223.186 104.043 223.276 104.024C223.366 104.005 223.459 104.005 223.55 104.025C223.64 104.044 223.725 104.082 223.8 104.136L250.068 119.298C250.189 119.372 250.283 119.484 250.335 119.616C250.388 119.748 250.396 119.894 250.359 120.031C250.322 120.168 250.241 120.29 250.129 120.378C250.017 120.466 249.88 120.515 249.738 120.518ZM250.137 115.529C250.021 115.529 249.908 115.499 249.807 115.442L227.66 102.658C227.576 102.62 227.501 102.565 227.44 102.496C227.378 102.427 227.332 102.346 227.304 102.259C227.276 102.171 227.266 102.078 227.276 101.986C227.286 101.895 227.315 101.806 227.362 101.726C227.408 101.647 227.471 101.577 227.546 101.523C227.62 101.469 227.706 101.432 227.796 101.413C227.886 101.394 227.979 101.394 228.069 101.413C228.16 101.432 228.245 101.47 228.319 101.524L250.467 114.309C250.589 114.383 250.682 114.495 250.735 114.627C250.787 114.759 250.796 114.905 250.759 115.042C250.722 115.179 250.641 115.301 250.529 115.389C250.417 115.477 250.28 115.526 250.138 115.529H250.137ZM258.774 115.301C258.659 115.301 258.545 115.271 258.445 115.214L232.178 100.052C232.046 99.9563 231.954 99.8148 231.921 99.6551C231.887 99.4954 231.914 99.3289 231.996 99.1878C232.078 99.0467 232.209 98.9411 232.365 98.8914C232.52 98.8416 232.688 98.8512 232.837 98.9185L259.104 114.08C259.225 114.155 259.319 114.266 259.372 114.398C259.424 114.531 259.432 114.676 259.395 114.813C259.358 114.951 259.278 115.072 259.166 115.16C259.054 115.248 258.917 115.297 258.774 115.301ZM259.174 110.315C259.059 110.315 258.945 110.285 258.845 110.228L236.698 97.4407C236.614 97.4028 236.539 97.3476 236.477 97.2787C236.416 97.2099 236.37 97.1289 236.342 97.0411C236.313 96.9532 236.304 96.8604 236.314 96.7687C236.324 96.677 236.353 96.5885 236.399 96.5087C236.446 96.429 236.508 96.3599 236.583 96.3058C236.658 96.2518 236.743 96.214 236.833 96.195C236.924 96.176 237.017 96.1761 237.107 96.1954C237.197 96.2147 237.282 96.2527 237.357 96.3069L259.504 109.091C259.629 109.163 259.727 109.274 259.782 109.408C259.838 109.541 259.847 109.689 259.81 109.828C259.772 109.968 259.689 110.091 259.574 110.178C259.459 110.266 259.319 110.313 259.174 110.312V110.315ZM267.814 110.083C267.699 110.084 267.585 110.054 267.485 109.996L241.219 94.8347C241.085 94.7393 240.992 94.5975 240.958 94.4372C240.923 94.2768 240.95 94.1093 241.032 93.9675C241.115 93.8257 241.247 93.7196 241.403 93.6701C241.56 93.6206 241.729 93.6312 241.878 93.6998L268.144 108.861C268.269 108.933 268.367 109.045 268.422 109.178C268.478 109.311 268.487 109.459 268.45 109.599C268.412 109.738 268.329 109.861 268.214 109.949C268.099 110.036 267.959 110.083 267.814 110.082V110.083ZM268.212 105.098C268.096 105.099 267.983 105.068 267.882 105.011L245.74 92.2199C245.608 92.1239 245.516 91.9824 245.483 91.8227C245.449 91.663 245.476 91.4965 245.558 91.3554C245.64 91.2144 245.771 91.1087 245.927 91.059C246.082 91.0092 246.25 91.0189 246.399 91.0861L268.547 103.873C268.669 103.948 268.763 104.059 268.816 104.192C268.869 104.324 268.877 104.47 268.84 104.608C268.803 104.745 268.722 104.867 268.61 104.955C268.498 105.043 268.36 105.092 268.218 105.095L268.212 105.098Z" fill="#0C6DC2"/>
<path d="M192.926 162.256V169.231L290.49 112.901V105.927L192.926 162.256Z" fill="#B2E0FF"/>
<path d="M192.925 169.884C192.838 169.885 192.752 169.868 192.672 169.836C192.591 169.803 192.518 169.754 192.457 169.693C192.395 169.632 192.347 169.559 192.314 169.478C192.281 169.398 192.265 169.312 192.266 169.225V162.25C192.266 162.135 192.297 162.023 192.355 161.923C192.413 161.824 192.496 161.741 192.595 161.684L290.157 105.354C290.256 105.297 290.369 105.266 290.484 105.267C290.598 105.267 290.711 105.297 290.81 105.354C290.91 105.412 290.992 105.494 291.049 105.594C291.107 105.693 291.137 105.806 291.137 105.921V112.895C291.136 113.01 291.105 113.123 291.048 113.222C290.99 113.322 290.907 113.405 290.807 113.462L193.254 169.797C193.154 169.855 193.04 169.885 192.925 169.884ZM193.584 162.633V168.096L289.839 112.522V107.057L193.584 162.633Z" fill="#0C6DC2"/>
<path d="M263.704 37.1677C259.068 34.4914 254.937 34.0146 252.236 35.434L252.23 35.4241L247.639 38.0763L247.645 38.0873C245.644 39.1739 244.441 41.3086 244.441 44.3937C244.441 51.6448 251.033 61.3197 259.178 66.022C261.543 67.3876 263.77 68.1644 265.752 68.427C267.244 71.6131 269.629 74.4982 272.329 76.0583C272.448 76.1264 272.564 76.177 272.68 76.2418L277.21 73.627C276.353 71.6384 275.85 69.5619 275.85 67.6359C275.85 66.1516 276.161 64.9321 276.694 63.9928C277.809 62.7842 278.452 61.0439 278.445 58.7961C278.442 51.5493 271.845 41.87 263.704 37.1677Z" fill="#B2E0FF"/>
<path d="M272.677 76.8941C272.567 76.8947 272.459 76.8666 272.363 76.8128L272 76.6238C269.353 75.0945 266.931 72.339 265.309 69.021C263.253 68.6914 261.082 67.8773 258.848 66.5875C250.542 61.7874 243.784 51.8324 243.784 44.3944C243.784 41.2512 245.002 38.8374 247.216 37.5772C247.245 37.5524 247.276 37.53 247.309 37.5102L251.902 34.858C251.948 34.8313 251.997 34.8106 252.048 34.7965C255.066 33.2858 259.42 33.9439 264.03 36.6016C272.337 41.3984 279.095 51.3545 279.095 58.7947C279.095 61.1205 278.436 63.0696 277.17 64.4352C276.755 65.2043 276.5 66.3205 276.5 67.6345C276.5 69.399 276.952 71.381 277.808 73.3663C277.87 73.5137 277.877 73.6789 277.827 73.8309C277.776 73.983 277.672 74.1115 277.534 74.1925L273.004 76.8062C272.905 76.8638 272.792 76.8941 272.677 76.8941ZM248.067 38.5814C248.033 38.6116 247.996 38.6377 247.957 38.6594C246.089 39.6779 245.1 41.6599 245.1 44.3922C245.1 51.416 251.566 60.8645 259.51 65.4559C261.724 66.7325 263.855 67.5137 265.843 67.7763C265.952 67.791 266.055 67.8326 266.144 67.8975C266.233 67.9623 266.304 68.0483 266.351 68.1476C267.837 71.3217 270.196 74.0661 272.66 75.4911H272.669L276.393 73.3432C275.611 71.3722 275.202 69.4089 275.202 67.6301C275.202 66.092 275.515 64.7516 276.131 63.665C277.268 62.4082 277.8 60.8085 277.796 58.7914C277.796 51.7599 271.332 42.3114 263.385 37.7288C259.112 35.2601 255.16 34.6328 252.549 36.0072C252.519 36.0231 252.488 36.0363 252.456 36.0468L248.067 38.5814Z" fill="#0C6DC2"/>
<path d="M262.946 67.7398C263.857 68.057 264.795 68.2866 265.749 68.4253C266.585 70.1887 267.678 71.8179 268.993 73.2595L275.962 69.234C275.891 68.7022 275.854 68.1664 275.852 67.6299C275.852 66.1456 276.163 64.9261 276.696 63.9867C277.811 62.7782 278.454 61.0379 278.447 58.79L262.946 67.7398Z" fill="#0C6DC2"/>
<path d="M268.993 73.9181C268.901 73.9177 268.811 73.898 268.728 73.8601C268.644 73.8222 268.57 73.7671 268.509 73.6984C267.23 72.294 266.153 70.718 265.309 69.0158C264.435 68.8657 263.575 68.6452 262.737 68.3566C262.619 68.3149 262.515 68.2403 262.438 68.1418C262.361 68.0432 262.313 67.9247 262.301 67.8002C262.289 67.6756 262.312 67.55 262.369 67.4383C262.425 67.3265 262.512 67.2331 262.62 67.169L278.111 58.2236C278.21 58.1679 278.323 58.139 278.437 58.1397C278.551 58.1403 278.663 58.1706 278.762 58.2275C278.86 58.2844 278.943 58.366 279.001 58.4643C279.059 58.5626 279.09 58.6743 279.092 58.7884C279.092 61.1164 278.433 63.0655 277.167 64.4311C276.752 65.2002 276.497 66.3164 276.497 67.6304C276.5 68.1388 276.537 68.6464 276.607 69.1499C276.623 69.2781 276.601 69.4082 276.544 69.524C276.486 69.6398 276.396 69.7363 276.285 69.8014L269.315 73.8269C269.217 73.8845 269.106 73.9159 268.993 73.9181ZM264.598 67.5458C265.006 67.6457 265.419 67.7241 265.835 67.7809C265.944 67.7958 266.047 67.8376 266.136 67.9024C266.224 67.9673 266.295 68.0531 266.342 68.1523C267.074 69.6994 268.012 71.1407 269.129 72.4371L275.262 68.8939C275.217 68.4775 275.194 68.0591 275.193 67.6403C275.193 66.1022 275.506 64.7618 276.122 63.6752C277.031 62.6721 277.55 61.4493 277.724 59.9694L264.598 67.5458Z" fill="#0C6DC2"/>
<path d="M272.159 66.6073C273.277 65.3987 273.917 63.6584 273.917 61.4106C273.917 54.1594 267.325 44.4823 259.18 39.7833C251.034 35.0843 244.443 37.1465 244.443 44.3977C244.443 51.6489 251.034 61.3161 259.174 66.0217C261.54 67.3873 263.767 68.1641 265.749 68.4267C267.241 71.6128 269.626 74.4979 272.325 76.058C272.444 76.1261 272.56 76.1766 272.677 76.2415C271.821 74.2529 271.317 72.1764 271.317 70.2515C271.317 68.7661 271.627 67.5477 272.159 66.6073Z" fill="white"/>
<path d="M272.677 76.8949C272.567 76.895 272.459 76.867 272.363 76.8136L272 76.6247C269.353 75.0953 266.931 72.3399 265.309 69.0219C263.253 68.6923 261.082 67.8782 258.848 66.5883C250.542 61.7883 243.784 51.8333 243.784 44.3953C243.784 41.2674 244.986 38.8514 247.17 37.5913C250.189 35.8477 254.686 36.4409 259.502 39.2173C267.808 44.0141 274.566 53.9702 274.566 61.4103C274.566 63.7054 273.921 65.6336 272.698 66.9927C272.218 67.8716 271.974 68.9703 271.974 70.2513C271.974 72.0158 272.425 73.9978 273.282 75.983C273.336 76.1081 273.349 76.247 273.32 76.38C273.291 76.513 273.221 76.6335 273.12 76.7246C272.999 76.8356 272.841 76.8965 272.677 76.8949ZM251.154 37.9231C249.885 37.9231 248.756 38.1867 247.829 38.7218C246.042 39.7534 245.097 41.7156 245.097 44.3931C245.097 51.4169 251.563 60.8654 259.507 65.4567C261.721 66.7334 263.851 67.5145 265.84 67.7771C265.949 67.7918 266.052 67.8335 266.141 67.8983C266.229 67.9632 266.301 68.0492 266.347 68.1485C267.577 70.7721 269.402 73.1034 271.39 74.6372C270.931 73.2197 270.688 71.7412 270.669 70.2513C270.669 68.7055 270.981 67.3706 271.597 66.2851C271.622 66.2414 271.651 66.2005 271.685 66.1632C272.734 65.0304 273.266 63.4319 273.264 61.4103C273.264 54.3789 266.8 44.9303 258.853 40.35C256.077 38.7492 253.394 37.9231 251.154 37.9231Z" fill="#0C6DC2"/>
<path d="M259.174 54.3507C258.48 53.9486 257.916 52.9751 257.916 52.1742C257.916 51.3733 258.48 51.0503 259.174 51.4524C259.869 51.8545 260.433 52.8246 260.433 53.6256C260.433 54.4265 259.87 54.7484 259.174 54.3507ZM254.392 50.1417C254.392 49.3408 253.83 48.364 253.135 47.9652C252.439 47.5664 251.877 47.8872 251.877 48.687C251.877 49.4869 252.441 50.4614 253.135 50.8635C253.829 51.2656 254.392 50.9415 254.392 50.1417ZM266.477 57.1127C266.477 56.3118 265.915 55.3384 265.22 54.9396C264.526 54.5407 263.96 54.8616 263.96 55.6614C263.96 56.4612 264.526 57.4357 265.22 57.8378C265.915 58.2399 266.473 57.9093 266.473 57.1127H266.477Z" fill="#0C6DC2"/>
<path d="M265.778 58.6613C265.465 58.6545 265.159 58.5659 264.891 58.4042C263.985 57.8802 263.302 56.7013 263.302 55.6576C263.302 55.0379 263.556 54.5358 263.996 54.2799C264.437 54.0239 265.005 54.0601 265.543 54.3699C266.445 54.8863 267.126 56.0652 267.126 57.1089C267.126 57.7286 266.873 58.2307 266.432 58.4855C266.234 58.6011 266.008 58.6617 265.778 58.6613ZM264.652 55.4192H264.64C264.621 55.4976 264.611 55.578 264.609 55.6587C264.609 56.2289 265.049 56.9771 265.543 57.2693C265.616 57.3183 265.701 57.3467 265.788 57.3517C265.807 57.2725 265.817 57.1915 265.819 57.11C265.819 56.5376 265.379 55.7916 264.891 55.5038C264.819 55.4572 264.737 55.4282 264.652 55.4192ZM259.738 55.1742C259.424 55.1672 259.118 55.0786 258.849 54.9171C257.945 54.3941 257.264 53.2163 257.264 52.1704C257.264 51.5486 257.517 51.0487 257.958 50.7927C258.399 50.5367 258.963 50.573 259.503 50.8828C260.405 51.4013 261.088 52.5769 261.088 53.6217C261.088 54.2414 260.835 54.7435 260.395 54.9984C260.195 55.1141 259.969 55.1748 259.738 55.1742ZM259.504 53.7833C259.577 53.8353 259.664 53.8644 259.753 53.8668C259.771 53.7874 259.781 53.7064 259.784 53.625C259.784 53.0537 259.344 52.3066 258.853 52.0188C258.779 51.9698 258.693 51.9407 258.604 51.9342C258.586 52.0129 258.576 52.0931 258.574 52.1737C258.57 52.745 259.004 53.4954 259.504 53.7833ZM253.705 51.687C253.391 51.6807 253.083 51.5921 252.814 51.4299C251.909 50.9048 251.228 49.727 251.228 48.6832C251.228 48.0614 251.481 47.5615 251.922 47.3055C252.362 47.0495 252.926 47.0858 253.467 47.3956C254.353 47.9032 255.05 49.1095 255.05 50.1423C255.05 50.7619 254.798 51.2618 254.359 51.5156C254.159 51.6312 253.931 51.6905 253.701 51.687H253.705ZM252.576 48.4448C252.569 48.4448 252.535 48.2504 252.535 48.6865C252.535 49.2568 252.974 50.0049 253.467 50.2972C253.541 50.3464 253.626 50.3749 253.715 50.3796C253.729 50.3008 253.739 50.2212 253.742 50.1412C253.742 49.5776 253.303 48.8107 252.814 48.5316C252.741 48.4836 252.658 48.4538 252.571 48.4448H252.576Z" fill="#0C6DC2"/>
<path d="M155.926 43.2215C151.979 40.944 148.404 40.6748 145.759 42.0569L145.747 42.0361L145.506 42.1767L140.989 44.7849C138.316 46.3231 136.66 49.6103 136.659 54.3027C136.659 63.6787 143.251 75.0905 151.398 79.7917C155.551 82.189 159.295 82.3659 161.974 80.7278L166.184 78.2964C166.294 78.2393 166.403 78.1778 166.502 78.113L166.559 78.0822V78.0756C169.098 76.4924 170.668 73.2668 170.668 68.7073C170.664 59.3291 164.065 47.9216 155.926 43.2215Z" fill="#B2E0FF"/>
<path d="M157.977 82.464C155.848 82.464 153.498 81.7576 151.068 80.3557C142.761 75.5611 136.002 63.8757 136.002 54.3019C136.002 49.5194 137.659 45.9389 140.661 44.2173L145.422 41.4706C145.483 41.4357 145.549 41.4112 145.617 41.3981C148.558 39.9435 152.327 40.3895 156.254 42.6561C164.56 47.4528 171.317 59.1361 171.315 68.7065C171.315 73.2814 169.777 76.7828 166.984 78.5759C166.951 78.606 166.914 78.6325 166.874 78.655C166.734 78.7407 166.615 78.8088 166.492 78.8747L162.302 81.2918C160.998 82.0778 159.5 82.4838 157.977 82.464ZM145.923 42.6923L141.309 45.3533C138.729 46.831 137.307 50.0105 137.306 54.3041C137.31 63.456 143.775 74.636 151.725 79.223C155.523 81.4203 159.043 81.7499 161.633 80.1678L165.858 77.7277C165.968 77.6684 166.064 77.6178 166.153 77.5596C166.171 77.5445 166.19 77.531 166.211 77.5189C168.661 75.9896 170.011 72.8595 170.011 68.7054C170.011 59.5546 163.549 48.3801 155.602 43.7888C152.005 41.7112 148.617 41.3036 146.066 42.6363C146.021 42.66 145.973 42.6781 145.923 42.6901V42.6923Z" fill="#0C6DC2"/>
<path d="M161.971 80.7256L166.181 78.2942C166.291 78.2371 166.401 78.1756 166.5 78.1108L166.557 78.08V78.0734C169.096 76.4902 170.666 73.2645 170.666 68.7051L151.439 79.8016C155.57 82.1901 159.299 82.3604 161.971 80.7256Z" fill="#0C6DC2"/>
<path d="M157.975 82.4625C155.856 82.4625 153.519 81.7626 151.105 80.375C151.006 80.3167 150.925 80.2337 150.868 80.1342C150.811 80.0347 150.781 79.9221 150.781 79.8075C150.781 79.693 150.811 79.5804 150.868 79.4809C150.925 79.3814 151.006 79.2984 151.105 79.2401L170.332 68.1435C170.431 68.0877 170.544 68.0588 170.658 68.0596C170.772 68.0604 170.884 68.0908 170.983 68.148C171.082 68.2052 171.165 68.2871 171.222 68.3857C171.28 68.4843 171.311 68.5962 171.313 68.7105C171.313 73.2853 169.775 76.7868 166.982 78.5798C166.948 78.61 166.911 78.6365 166.872 78.6589C166.731 78.7446 166.613 78.8127 166.49 78.8786L162.307 81.2957C161 82.0803 159.499 82.4844 157.975 82.4625ZM152.776 79.7839C156.17 81.4616 159.283 81.6077 161.629 80.1674C161.634 80.1655 161.639 80.1625 161.643 80.1586L165.855 77.7272C165.964 77.6679 166.06 77.6173 166.149 77.5591C166.167 77.5441 166.187 77.5305 166.207 77.5185C168.425 76.1341 169.742 73.438 169.971 69.8575L152.776 79.7839Z" fill="#0C6DC2"/>
<path d="M166.13 71.3205C166.13 80.6965 159.532 84.4902 151.395 79.7901C143.258 75.09 136.656 63.6793 136.656 54.301C136.656 44.9228 143.248 41.1357 151.395 45.8413C159.541 50.5469 166.132 61.9456 166.13 71.3205Z" fill="#B2E0FF"/>
<path d="M157.988 82.4652C155.85 82.4652 153.495 81.7576 151.066 80.3557C142.759 75.5611 136 63.8757 136 54.302C136 49.5326 137.648 45.9521 140.632 44.2327C143.616 42.5133 147.569 42.8714 151.725 45.2742C160.032 50.0699 166.79 61.7542 166.788 71.3236C166.788 76.0951 165.14 79.6735 162.156 81.3973C160.886 82.1161 159.447 82.4847 157.988 82.4652ZM144.804 44.4678C143.573 44.4498 142.36 44.7592 141.288 45.3643C138.724 46.8442 137.312 50.0204 137.311 54.302C137.311 63.456 143.775 74.6361 151.725 79.223C155.461 81.3808 158.93 81.7499 161.503 80.2601C164.076 78.7703 165.482 75.6051 165.482 71.3203C165.482 62.1706 159.019 50.995 151.073 46.4047C148.842 45.1182 146.708 44.4678 144.804 44.4678Z" fill="#0C6DC2"/>
<path d="M151.395 67.7973C148.225 65.9658 145.652 61.5184 145.652 57.8643C145.652 54.2101 148.223 52.7346 151.394 54.5683C154.565 56.4019 157.133 60.8449 157.135 64.4958C157.138 68.1467 154.567 69.6277 151.395 67.7973ZM151.395 79.7881C155.529 82.1755 159.258 82.3656 161.93 80.7517C159.775 75.3957 155.871 70.3803 151.395 67.7973C146.919 65.2143 143.011 65.7164 140.848 68.5839C143.535 73.2906 147.261 77.4051 151.395 79.7892V79.7881Z" fill="white"/>
<path d="M157.977 82.4658C155.847 82.4658 153.497 81.7582 151.067 80.3563C146.978 77.9986 143.155 73.9324 140.287 68.9093C140.225 68.7982 140.195 68.6713 140.203 68.5439C140.211 68.4166 140.256 68.2943 140.332 68.1919C142.112 65.8276 144.92 64.9893 148.093 65.7452C146.248 63.4775 144.999 60.4716 144.999 57.8655C144.999 55.8594 145.711 54.3443 147.005 53.5983C148.298 52.8523 149.978 52.9918 151.721 54.0037C155.065 55.933 157.788 60.6386 157.79 64.496C157.79 66.5032 157.077 68.0205 155.784 68.7665C155.395 68.9911 154.966 69.1385 154.521 69.2005C157.839 71.9691 160.724 75.999 162.541 80.5101C162.597 80.654 162.601 80.813 162.551 80.9594C162.502 81.1058 162.403 81.2302 162.272 81.3111C160.974 82.0853 159.488 82.4849 157.977 82.4658ZM141.645 68.6467C144.369 73.2908 147.934 77.0394 151.724 79.2236C155.272 81.2759 158.577 81.7011 161.105 80.4629C158.895 75.2849 155.091 70.6848 151.073 68.3666C147.207 66.1374 143.722 66.2593 141.645 68.6467ZM151.724 67.2316C153.049 68.0007 154.26 68.1391 155.13 67.6338C156 67.1284 156.482 66.0165 156.483 64.496C156.483 61.056 154.051 56.8569 151.067 55.1353C149.749 54.3663 148.532 54.2267 147.662 54.7299C146.791 55.2331 146.31 56.3461 146.31 57.8655C146.31 61.3043 148.739 65.5056 151.724 67.2316Z" fill="#0C6DC2"/>
<path d="M274.766 129.751C273.114 130.705 271.782 132.127 270.939 133.838C270.095 135.548 269.778 137.471 270.027 139.362C270.276 141.253 271.08 143.028 272.338 144.462C273.596 145.896 275.251 146.925 277.094 147.419C278.936 147.912 280.884 147.848 282.69 147.235C284.496 146.621 286.08 145.486 287.241 143.972C288.402 142.459 289.088 140.635 289.212 138.731C289.336 136.828 288.893 134.93 287.939 133.279C287.306 132.182 286.463 131.22 285.459 130.449C284.454 129.678 283.307 129.113 282.084 128.785C280.86 128.458 279.584 128.374 278.329 128.54C277.073 128.706 275.863 129.117 274.766 129.751Z" fill="#B2E0FF"/>
<path d="M279.61 148.397C277.113 148.399 274.7 147.493 272.821 145.848C270.942 144.202 269.726 141.93 269.398 139.454C269.071 136.978 269.655 134.468 271.042 132.391C272.429 130.314 274.524 128.812 276.936 128.165C279.348 127.519 281.913 127.771 284.153 128.876C286.393 129.981 288.154 131.862 289.11 134.17C290.065 136.477 290.148 139.053 289.344 141.418C288.541 143.782 286.904 145.774 284.741 147.021C283.18 147.92 281.411 148.394 279.61 148.397ZM279.576 129.109C278.002 129.11 276.457 129.527 275.097 130.317C273.296 131.357 271.912 132.989 271.18 134.935C270.448 136.881 270.413 139.021 271.082 140.989C271.75 142.958 273.081 144.634 274.847 145.732C276.613 146.83 278.704 147.281 280.766 147.01C282.827 146.738 284.73 145.76 286.152 144.242C287.573 142.725 288.424 140.761 288.56 138.687C288.695 136.612 288.108 134.554 286.896 132.864C285.685 131.174 283.926 129.957 281.917 129.419C281.153 129.213 280.365 129.109 279.574 129.109H279.576Z" fill="#0C6DC2"/>
<path d="M218.664 162.141C217.429 162.852 216.664 164.378 216.663 166.554C216.663 170.9 219.717 176.184 223.486 178.361C225.369 179.447 227.072 179.553 228.307 178.844L284.1 146.632C285.337 145.92 286.102 144.394 286.102 142.219C286.102 137.874 283.048 132.588 279.279 130.412C277.396 129.325 275.692 129.22 274.457 129.928L218.664 162.141Z" fill="#B2E0FF"/>
<path d="M226.544 179.952C225.494 179.952 224.347 179.608 223.165 178.928C219.224 176.652 216.016 171.101 216.015 166.555C216.015 164.208 216.844 162.439 218.342 161.575L274.135 129.362C275.634 128.502 277.581 128.675 279.612 129.845C283.554 132.124 286.761 137.673 286.761 142.22C286.761 144.567 285.934 146.335 284.431 147.2L228.632 179.412C227.995 179.771 227.275 179.958 226.544 179.952ZM276.235 130.132C275.729 130.124 275.23 130.249 274.788 130.496L218.996 162.709C217.919 163.329 217.324 164.695 217.322 166.554C217.322 170.685 220.237 175.727 223.818 177.793C225.427 178.723 226.906 178.892 227.987 178.277L283.78 146.065C284.859 145.443 285.454 144.077 285.454 142.22C285.454 138.09 282.54 133.047 278.958 130.979C277.977 130.415 277.049 130.132 276.229 130.132H276.235Z" fill="#0C6DC2"/>
<path d="M218.663 162.144C208.93 167.762 207.017 175.299 204.201 179.808L204.989 181.169L205.777 182.535C211.089 182.345 218.573 184.463 228.306 178.843C229.542 178.132 230.308 176.607 230.308 174.43C230.308 170.085 227.256 164.799 223.485 162.624C221.602 161.537 219.898 161.432 218.663 162.144Z" fill="white"/>
<path d="M213.548 183.429C212.128 183.429 210.79 183.356 209.528 183.288C208.19 183.218 206.926 183.145 205.801 183.189C205.683 183.19 205.566 183.161 205.462 183.103C205.359 183.045 205.272 182.961 205.211 182.859L203.636 180.131C203.577 180.028 203.547 179.911 203.549 179.792C203.551 179.673 203.585 179.557 203.648 179.456C204.245 178.502 204.817 177.376 205.42 176.186C207.707 171.681 210.553 166.067 218.336 161.573C219.838 160.71 221.781 160.884 223.813 162.054C227.755 164.33 230.962 169.88 230.962 174.427C230.962 176.774 230.134 178.542 228.633 179.407C222.8 182.779 217.809 183.429 213.548 183.429ZM206.516 181.869C207.487 181.869 208.517 181.924 209.593 181.979C214.47 182.238 220.532 182.57 227.973 178.272C229.054 177.651 229.649 176.286 229.649 174.427C229.649 170.296 226.735 165.254 223.154 163.187C221.544 162.256 220.063 162.089 218.985 162.707C211.538 167.005 208.788 172.423 206.581 176.777C206.032 177.861 205.509 178.892 204.956 179.815L206.144 181.868C206.271 181.869 206.396 181.869 206.52 181.869H206.516Z" fill="#0C6DC2"/>
<path d="M204.202 179.808C204.641 179.555 205.341 179.964 205.777 180.717C206.214 181.469 206.217 182.283 205.777 182.535C205.338 182.787 200.106 184.994 199.671 184.241C199.236 183.489 203.767 180.06 204.202 179.808Z" fill="#0C6DC2"/>
<path d="M200.135 185.048C199.609 185.048 199.288 184.886 199.105 184.568C198.705 183.877 199.267 183.003 201.181 181.342C202.28 180.384 203.59 179.406 203.875 179.241C204.288 179 204.816 179.03 205.317 179.318C205.745 179.581 206.099 179.95 206.343 180.389C206.978 181.488 206.876 182.654 206.105 183.1C205.82 183.265 204.321 183.905 202.937 184.382C201.646 184.828 200.749 185.048 200.135 185.048ZM204.506 180.387C203.906 180.753 201.502 182.669 200.612 183.697C201.967 183.437 204.888 182.286 205.446 181.967C205.468 181.913 205.484 181.521 205.208 181.043C204.946 180.588 204.621 180.399 204.506 180.387Z" fill="#0C6DC2"/>
<path d="M251.36 143.267C252.596 142.546 254.31 142.641 256.203 143.734C259.972 145.911 263.026 151.199 263.026 155.542C263.026 157.731 262.249 159.26 261 159.965L284.1 146.629C285.337 145.917 286.101 144.391 286.101 142.216C286.101 137.871 283.047 132.585 279.279 130.409C277.396 129.322 275.692 129.217 274.457 129.925L251.359 143.261L251.36 143.267Z" fill="white"/>
<path d="M261.001 160.621C260.938 160.621 260.875 160.612 260.815 160.594C260.693 160.556 260.584 160.483 260.503 160.385C260.421 160.286 260.37 160.166 260.356 160.039C260.341 159.912 260.364 159.783 260.421 159.669C260.479 159.555 260.568 159.46 260.678 159.395C261.777 158.779 262.372 157.41 262.372 155.54C262.372 151.411 259.459 146.368 255.876 144.301C254.261 143.366 252.772 143.202 251.691 143.833C251.613 143.877 251.528 143.905 251.439 143.916C251.35 143.926 251.26 143.919 251.174 143.894C251.089 143.869 251.01 143.827 250.941 143.77C250.873 143.714 250.817 143.644 250.777 143.565C250.703 143.415 250.689 143.243 250.737 143.084C250.784 142.924 250.891 142.789 251.034 142.704L274.131 129.369C275.63 128.508 277.577 128.682 279.608 129.852C283.55 132.131 286.757 137.68 286.757 142.226C286.757 144.574 285.93 146.342 284.427 147.207L261.331 160.542C261.23 160.597 261.116 160.624 261.001 160.621ZM254.359 142.287C255.123 142.469 255.855 142.765 256.531 143.166C260.472 145.444 263.68 150.993 263.68 155.539C263.689 156.32 263.581 157.097 263.36 157.846L283.774 146.06C284.853 145.438 285.448 144.072 285.448 142.214C285.448 138.084 282.534 133.042 278.952 130.974C277.34 130.043 275.86 129.875 274.778 130.49L254.359 142.287Z" fill="#0C6DC2"/>
<path d="M243.285 146.274C241.559 147.262 241.561 148.886 243.285 149.884C245.013 150.881 247.815 150.881 249.541 149.884L272.703 136.511C274.428 135.522 274.428 133.898 272.703 132.901C270.977 131.903 268.175 131.903 266.45 132.901L243.285 146.274Z" fill="#B2E0FF"/>
<path d="M246.415 151.289C245.172 151.289 243.929 151.009 242.96 150.451C241.913 149.844 241.337 149.002 241.337 148.076C241.337 147.149 241.913 146.31 242.959 145.707L266.123 132.331C268.059 131.217 271.093 131.217 273.029 132.331C274.076 132.935 274.653 133.778 274.652 134.704C274.651 135.63 274.076 136.469 273.032 137.072L249.87 150.445C248.901 151.009 247.658 151.289 246.415 151.289ZM269.573 132.809C268.552 132.809 267.534 133.028 266.777 133.468L243.612 146.844C242.998 147.197 242.645 147.648 242.645 148.079C242.645 148.51 242.998 148.964 243.614 149.322C245.135 150.2 247.699 150.2 249.218 149.322L272.381 135.947C272.995 135.595 273.345 135.143 273.345 134.71C273.345 134.277 272.994 133.831 272.378 133.471C271.615 133.028 270.593 132.809 269.573 132.809Z" fill="#0C6DC2"/>
</g>
<defs>
<clipPath id="clip0_2032_3564">
<rect width="200" height="220" fill="white" transform="translate(104 4)"/>
</clipPath>
</defs>
</svg>
