<svg width="137" height="30" viewBox="0 0 137 30" fill="none" xmlns="http://www.w3.org/2000/svg">
<path d="M134.688 9.77643C131.989 12.4572 128.021 14.1918 124.37 14.5072C125.799 12.2995 126.91 10.0918 126.91 7.88412C126.91 7.88412 126.91 7.88412 126.91 7.72643V6.78027C126.91 7.72643 122.942 8.83028 122.307 8.98797C120.878 9.46105 115.164 10.4072 111.513 13.8764C110.085 15.2957 109.767 16.7149 109.291 18.6072C109.926 16.3995 111.672 15.2957 114.212 14.0341C116.91 12.9303 121.196 12.4572 121.355 12.2995C121.037 12.7726 120.72 13.2457 120.72 13.2457C119.767 14.6649 118.974 16.0841 118.815 17.6611V18.1341H119.291C122.624 17.8188 125.799 16.8726 128.815 15.4534C132.148 13.7188 133.894 11.1957 136.116 8.3572C135.958 8.51489 134.847 9.46105 134.688 9.77643Z" fill="white"/>
<path d="M99.1314 16.2424C99.1314 18.6078 100.084 20.6578 101.671 22.2347C103.258 23.8116 105.322 24.7578 107.703 24.7578C108.338 24.7578 108.814 24.7578 109.449 24.6001C109.449 24.6001 109.608 24.6001 109.766 24.6001C110.243 24.4424 110.719 24.2847 111.195 24.127C111.354 24.127 111.354 23.9693 111.512 23.9693C111.671 23.9693 111.671 23.8116 111.83 23.8116C112.147 23.3386 112.306 22.7078 112.147 22.2347C112.147 22.077 111.989 22.077 111.989 21.9193C111.989 21.7616 111.83 21.7616 111.83 21.6039C111.354 21.2886 110.719 21.1309 110.243 21.2886C110.084 21.2886 110.084 21.2886 109.925 21.4462C109.766 21.4462 109.766 21.4462 109.608 21.6039C109.131 21.7616 108.655 21.7616 108.02 21.7616C106.592 21.7616 105.163 21.1309 104.211 20.1847C103.258 19.2386 102.624 17.8193 102.624 16.4001C102.624 14.9808 103.258 13.5616 104.211 12.6155C105.163 11.6693 106.592 11.0385 108.02 11.0385C108.338 11.0385 108.814 11.0385 109.131 11.1962H109.29C109.608 11.1962 109.925 11.3539 110.084 11.5116C110.243 11.5116 110.243 11.5116 110.401 11.6693C110.56 11.6693 110.56 11.6693 110.719 11.6693C111.354 11.6693 111.83 11.3539 111.989 10.7231C111.989 10.5655 111.989 10.5655 112.147 10.4078C112.147 10.2501 112.147 10.2501 112.147 10.0924C112.147 9.4616 111.83 8.98853 111.195 8.83083C111.036 8.83083 110.878 8.67314 110.719 8.67314C110.56 8.67314 110.401 8.51545 110.243 8.51545C109.449 8.35776 108.655 8.20006 107.862 8.20006C105.481 8.20006 103.417 9.14622 101.83 10.7231C100.084 11.827 99.1314 13.877 99.1314 16.2424ZM98.4965 20.1847V15.927V9.30391C98.4965 8.83083 98.3378 8.51545 98.0203 8.20006C97.8616 8.04237 97.3854 7.88468 97.0679 7.88468C96.5918 7.88468 96.2743 8.04237 95.9568 8.35776C95.6394 8.67314 95.4806 8.98853 95.4806 9.4616V16.0847C95.4806 17.5039 94.8457 18.9232 93.8933 19.8693C92.9409 20.8155 91.5124 21.4462 90.0838 21.4462C88.6552 21.4462 87.2267 20.8155 86.2743 19.8693C85.3219 18.9232 84.687 17.5039 84.687 16.0847V9.30391C84.687 8.83083 84.5282 8.51545 84.2108 8.20006C83.8933 8.04237 83.5759 7.88468 83.0997 7.88468C82.6235 7.88468 82.306 8.04237 81.9885 8.35776C81.6711 8.67314 81.5124 8.98853 81.5124 9.4616V16.0847C81.5124 18.4501 82.4647 20.5001 84.052 22.077C85.6394 23.6539 87.7028 24.6001 90.0838 24.6001C90.8775 24.6001 91.6711 24.4424 92.4648 24.2847C92.6235 24.2847 92.7822 24.2847 92.7822 24.127C93.4171 23.9693 94.0521 23.6539 94.5283 23.3386L95.0044 23.0232L94.687 23.6539C94.5283 23.9693 94.5283 24.127 94.3695 24.4424C94.2108 24.7578 94.0521 24.9155 93.8933 25.0732C93.5759 25.3886 93.2584 25.5463 92.7822 25.7039C92.306 25.8616 91.9886 25.8616 91.3536 25.8616C90.8775 25.8616 90.56 26.0193 90.2425 26.3347C89.9251 26.6501 89.7663 26.9655 89.7663 27.4386C89.7663 27.9116 89.9251 28.227 90.2425 28.5424L90.4013 28.7001C90.7187 28.8578 91.0362 29.0155 91.3536 29.0155C92.306 29.0155 93.0997 28.8578 93.8933 28.5424C94.0521 28.5424 94.2108 28.3847 94.2108 28.3847C94.8457 28.0693 95.4806 27.754 95.9568 27.1232C97.0679 26.0193 97.7029 24.4424 98.0203 23.1809C98.4965 21.6039 98.4965 20.5001 98.4965 20.1847ZM64.5282 14.0347C64.5282 14.1924 64.5282 14.1924 64.3695 14.3501C64.3695 14.5078 64.3695 14.6655 64.3695 14.6655V27.9116C64.3695 28.3847 64.5282 28.8578 64.8456 29.1732C65.1631 29.4886 65.4806 29.6463 65.9568 29.6463C66.433 29.6463 66.7504 29.4886 67.0679 29.1732C67.3853 28.8578 67.5441 28.3847 67.5441 27.9116V23.4963L67.3853 23.3386C67.2266 23.3386 67.2266 23.1809 67.0679 23.1809C66.7504 22.8655 66.5917 22.5501 66.433 22.2347V22.077V21.9193C66.433 21.4462 66.433 21.1309 66.5917 20.8155C66.5917 20.8155 66.5917 20.6578 66.7504 20.6578L66.9091 20.5001C67.0679 20.3424 67.3853 20.1847 67.5441 20.027H67.7028V14.9808C68.179 13.4039 69.2901 11.9847 70.8774 11.3539C70.8774 11.1962 71.1949 11.0385 71.3536 11.0385C71.6711 11.0385 71.9885 10.8808 72.306 10.8808H72.4647C73.8933 10.8808 75.3219 11.5116 76.2742 12.4578C77.2266 13.4039 77.8616 14.8232 77.8616 16.2424C77.8616 17.6616 77.2266 19.0809 76.2742 20.027C75.3219 20.9732 73.8933 21.6039 72.4647 21.6039C71.5123 21.6039 70.7187 21.4462 69.925 20.9732C69.7663 20.8155 69.6076 20.8155 69.4488 20.6578C69.2901 20.5001 69.1314 20.5001 68.9726 20.3424C68.4965 20.027 67.8615 19.8693 67.3853 20.1847C67.2266 20.1847 67.2266 20.3424 67.0679 20.3424C66.9091 20.3424 66.9091 20.5001 66.7504 20.5001C66.7504 20.8155 66.7504 21.2886 66.7504 21.6039C66.7504 21.9193 66.9091 22.3924 67.2266 22.5501C67.8615 23.0232 68.4964 23.4963 69.2901 23.8116C69.4488 23.8116 69.6076 23.9693 69.7663 23.9693C70.7187 24.2847 71.6711 24.4424 72.6234 24.4424C75.0044 24.4424 77.0679 23.4963 78.4965 21.9193C80.0838 20.3424 81.0362 18.2924 81.0362 16.0847C81.0362 12.7732 79.1314 10.0924 76.433 8.67314C75.9568 8.35776 75.3219 8.20006 74.6869 8.04237C74.052 8.04237 73.5758 7.88468 72.7822 7.88468H72.6234C69.925 7.88468 67.3853 9.14622 65.798 11.3539C65.4806 11.827 65.1631 12.1424 65.0044 12.6155C64.8457 13.0885 64.6869 13.5616 64.5282 14.0347ZM63.5758 14.0347C63.4171 13.5616 63.2583 13.0885 63.0996 12.6155C62.9409 12.1424 62.6234 11.6693 62.306 11.3539C60.7187 9.30391 58.3377 7.88468 55.4805 7.88468H55.3218C54.6869 7.88468 54.052 8.04237 53.417 8.20006C52.7821 8.35775 52.3059 8.51545 51.671 8.83083C48.9726 10.2501 47.0678 13.0885 47.0678 16.2424C47.0678 18.6078 48.0202 20.6578 49.6075 22.077C51.1948 23.6539 53.2583 24.6001 55.4805 24.6001C56.4329 24.6001 57.3853 24.4424 58.3377 24.127C58.4964 24.127 58.6552 23.9693 58.8139 23.9693C59.6075 23.6539 60.2425 23.1809 60.8774 22.7078C61.0361 22.7078 61.0361 22.5501 61.0361 22.3924C61.0361 22.2347 61.1948 22.2347 61.1948 22.077C61.3536 21.6039 61.3536 20.9732 61.0361 20.5001C61.0361 20.3424 60.8774 20.3424 60.7187 20.3424C60.5599 20.3424 60.5599 20.1847 60.4012 20.1847C59.925 20.027 59.2901 20.027 58.8139 20.3424C58.6552 20.5001 58.4964 20.5001 58.3377 20.6578C58.179 20.8155 58.0202 20.8155 57.8615 20.9732C57.0679 21.4462 56.1155 21.6039 55.3218 21.6039C53.8932 21.6039 52.4647 20.9732 51.5123 20.027C50.5599 19.0809 49.925 17.6616 49.925 16.2424C49.925 14.8232 50.5599 13.4039 51.5123 12.4578C52.4647 11.5116 53.8932 10.8808 55.3218 10.8808H55.4805C55.798 10.8808 56.1155 10.8808 56.4329 11.0385C56.7504 11.0385 57.0678 11.1962 57.3853 11.3539C58.8139 11.9847 60.0837 13.2462 60.5599 14.9808V19.5539H60.7187C61.0361 19.7116 61.1948 19.8693 61.3536 20.027L61.5123 20.1847L61.671 20.3424C61.8298 20.6578 61.9885 21.1309 61.8298 21.4462V21.6039V21.7616C61.671 22.077 61.5123 22.3924 61.1948 22.7078C61.0361 22.7078 61.0361 22.8655 60.8774 22.8655L60.7187 23.0232V23.1809C60.7187 23.3386 60.8774 23.3386 60.8774 23.4963C61.1948 23.9693 61.671 24.2847 62.1472 24.2847C62.6234 24.2847 62.9409 24.127 63.2583 23.8116C63.5758 23.4963 63.7345 23.0232 63.7345 22.5501V14.6655C63.7345 14.5078 63.7345 14.3501 63.7345 14.3501C63.5758 14.1924 63.5758 14.1924 63.5758 14.0347ZM29.7662 14.0347C29.7662 14.1924 29.7662 14.1924 29.6075 14.3501C29.6075 14.5078 29.6075 14.6655 29.6075 14.6655V27.9116C29.6075 28.3847 29.7662 28.8578 30.0837 29.1732C30.4011 29.4886 30.7186 29.6463 31.1948 29.6463C31.671 29.6463 31.9884 29.4886 32.3059 29.1732C32.6234 28.8578 32.7821 28.3847 32.7821 27.9116V23.4963L32.6234 23.3386C32.4646 23.3386 32.4646 23.1809 32.3059 23.1809C31.9884 22.8655 31.8297 22.5501 31.671 22.2347V22.077V21.9193C31.671 21.4462 31.671 21.1309 31.8297 20.8155C31.8297 20.8155 31.8297 20.6578 31.9884 20.6578L32.1472 20.5001C32.3059 20.3424 32.4646 20.1847 32.7821 20.027H32.9408V14.9808C33.417 13.4039 34.5281 11.9847 36.1154 11.3539C36.1154 11.1962 36.4329 11.0385 36.7503 11.0385C37.0678 11.0385 37.3853 10.8808 37.7027 10.8808H37.8615C39.29 10.8808 40.7186 11.5116 41.671 12.4578C42.6234 13.4039 43.2583 14.8232 43.2583 16.2424C43.2583 17.6616 42.6234 19.0809 41.671 20.027C40.7186 20.9732 39.29 21.6039 37.8615 21.6039C36.9091 21.6039 36.1154 21.4462 35.3218 20.9732C35.163 20.8155 35.0043 20.8155 34.8456 20.6578C34.6868 20.5001 34.5281 20.5001 34.3694 20.3424C33.8932 20.027 33.2583 19.8693 32.7821 20.1847C32.6234 20.1847 32.6234 20.3424 32.4646 20.3424C32.3059 20.3424 32.3059 20.5001 32.1472 20.5001C31.8297 20.8155 31.8297 21.2886 31.8297 21.6039C31.8297 21.9193 31.9884 22.3924 32.3059 22.5501C32.9408 23.0232 33.5757 23.4963 34.3694 23.8116C34.5281 23.8116 34.6868 23.9693 34.8456 23.9693C35.798 24.2847 36.7503 24.4424 37.7027 24.4424C40.0837 24.4424 42.1472 23.4963 43.5758 21.9193C45.1631 20.3424 46.1154 18.2924 46.1154 16.0847C46.1154 12.7732 44.2107 10.0924 41.5123 8.67314C41.0361 8.35776 40.4011 8.20006 39.7662 8.04237C39.29 8.04237 38.8138 7.88468 38.1789 7.88468H38.0202C35.3218 7.88468 32.7821 9.14622 31.1948 11.3539C30.7186 11.6693 30.5599 12.1424 30.2424 12.6155C30.0837 13.0885 29.9249 13.5616 29.7662 14.0347ZM22.4646 14.8232C21.9884 14.8232 21.6709 14.9808 21.3535 15.2962C21.036 15.6116 20.8773 15.927 20.8773 16.4001C20.8773 16.8732 21.036 17.1885 21.3535 17.5039C21.6709 17.8193 21.9884 17.977 22.4646 17.977H25.3217C25.7979 17.977 26.1154 17.8193 26.4329 17.5039L26.5916 17.3462C26.7503 17.0309 26.9091 16.7155 26.9091 16.4001C26.9091 15.927 26.7503 15.6116 26.4329 15.2962C26.1154 14.9808 25.7979 14.8232 25.3217 14.8232H22.4646ZM10.4011 15.927C10.4011 18.2924 11.3535 20.3424 12.9408 21.9193C14.5281 23.4963 16.5916 24.4424 18.9725 24.4424C19.6074 24.4424 20.0836 24.4424 20.7186 24.2847C20.7186 24.2847 20.8773 24.2847 21.036 24.2847C21.5122 24.127 21.9884 23.9693 22.4646 23.8116C22.7821 23.6539 23.0995 23.3386 23.2583 23.0232C23.417 22.7078 23.417 22.2347 23.2583 21.9193C23.2583 21.7616 23.0995 21.7616 23.0995 21.6039C23.0995 21.4462 22.9408 21.4462 22.9408 21.2886C22.4646 20.9732 21.8297 20.8155 21.3535 20.9732C21.1948 20.9732 21.1948 20.9732 21.036 21.1309C20.8773 21.1309 20.8773 21.1309 20.7186 21.2886C20.2424 21.4462 19.7662 21.4462 19.1313 21.4462C17.7027 21.4462 16.2741 20.8155 15.3217 19.8693C14.3693 18.9232 13.7344 17.5039 13.7344 16.0847C13.7344 14.6655 14.3693 13.2462 15.3217 12.3001C16.2741 11.3539 17.7027 10.7231 19.1313 10.7231C19.4487 10.7231 19.9249 10.7231 20.2424 10.8808H20.4011C20.7186 10.8808 21.036 11.0385 21.1948 11.1962C21.3535 11.1962 21.3535 11.1962 21.5122 11.3539C21.6709 11.3539 21.6709 11.3539 21.8297 11.3539C22.4646 11.3539 22.9408 11.0385 23.0995 10.4078C23.0995 10.2501 23.0995 10.2501 23.2583 10.0924C23.2583 9.93468 23.2583 9.93468 23.2583 9.77699C23.2583 9.14622 22.9408 8.67314 22.3059 8.51545C22.1471 8.51545 21.9884 8.35776 21.8297 8.35776C21.6709 7.88468 21.5122 7.88468 21.3535 7.88468C20.5598 7.72698 19.7662 7.56929 18.9725 7.56929C16.5916 7.56929 14.3693 8.51545 12.9408 9.93468C11.3535 11.5116 10.4011 13.5616 10.4011 15.927ZM8.02012 7.25391H3.2582C2.78201 7.25391 2.46455 7.4116 2.14709 7.72698C1.82963 8.04237 1.6709 8.35776 1.6709 8.83083C1.6709 9.30391 1.82963 9.6193 2.14709 9.93468C2.46455 10.2501 2.78201 10.4078 3.2582 10.4078H6.43281V10.5655V23.1809C6.43281 23.6539 6.59154 23.9693 6.90901 24.2847C7.22647 24.6001 7.54393 24.7578 8.02012 24.7578C8.49631 24.7578 8.81377 24.6001 9.13123 24.2847C9.44869 23.9693 9.60743 23.6539 9.60743 23.1809V7.4116L8.02012 7.25391Z" fill="white"/>
<path d="M124.528 3.15385C124.528 4.88847 123.1 6.4654 121.195 6.4654C119.449 6.4654 118.021 5.04617 118.021 3.15385C118.021 1.41923 119.449 0 121.195 0C122.941 0 124.528 1.41923 124.528 3.15385ZM118.497 3.15385C118.497 4.57309 119.767 5.83463 121.195 5.83463C122.624 5.99232 123.894 4.73078 123.894 3.15385C123.894 1.73462 122.624 0.473078 121.195 0.473078C119.767 0.630771 118.497 1.73462 118.497 3.15385ZM121.036 1.41923C121.83 1.41923 122.624 1.57693 122.624 2.52308C122.624 2.99616 122.465 3.15385 121.989 3.31155C122.465 3.46924 122.624 3.78462 122.624 4.4154C122.624 4.73078 122.624 4.73078 122.782 4.88847H121.989C121.989 4.73078 121.989 4.73078 121.989 4.4154C121.989 3.62693 121.83 3.62693 121.195 3.62693H120.719V4.88847H119.925V1.41923H121.036ZM121.036 2.99616C121.671 2.99616 121.83 2.83847 121.83 2.52308C121.83 2.2077 121.671 2.05 121.036 2.05H120.719V2.99616H121.036Z" fill="white"/>
</svg>
