<svg width="1104" height="211" viewBox="0 0 1104 211" fill="none" xmlns="http://www.w3.org/2000/svg">
<g clip-path="url(#clip0_1604_12590)">
<path d="M1122.95 -19.3345L1064.04 -53.3945V14.3429L1122.95 48.403V-19.3345Z" fill="white" fill-opacity="0.2"/>
<path d="M887.713 48.4023L946.618 82.4624V150.2L887.713 116.522V48.4023Z" fill="white" fill-opacity="0.2"/>
<path d="M535.046 184.26L476.523 150.2V218.32L535.046 251.998V184.26Z" fill="white" fill-opacity="0.2"/>
<path opacity="0.5" fill-rule="evenodd" clip-rule="evenodd" d="M241.287 150.583L299.809 184.26V251.615V251.997V252.244L308 257L308.004 257.038L359.096 286.44H359.479L417.619 252.763V320.118V320.5H418.001L476.523 354.178H476.906L535.811 388.238H536.193L594.715 354.56L653.238 388.238H653.62C653.62 388.238 654.003 388.238 654.003 387.855V387.472L595.863 353.795L653.763 320.638L710.995 353.412V353.297L712.525 354.178V354.999L711.76 354.56V421.532L712.143 421.752L654.003 455.21C653.62 455.21 653.62 455.593 654.003 455.593L654.385 455.975H654.768L713.193 422.353L752.918 445.103L771.431 455.756L771.047 455.975L798.523 471.71L829.187 490.035H829.569L888.474 455.975V455.593V387.855V387.472H888.092L829.952 353.795L836.837 349.968L887.709 320.5L946.232 354.178V421.915C946.232 422.298 946.232 422.298 946.614 422.298C946.997 422.298 946.996 422.298 946.996 421.915V354.178L1005.52 320.5L1064.42 354.56H1064.81L1123.33 320.883L1181.09 354.178L1122.95 387.855C1122.56 387.855 1122.56 388.238 1122.95 388.238L1123.33 388.62H1123.71L1182.23 354.943L1241.14 389.003H1241.52L1300.43 354.943V354.56V286.823L1321.84 274.577L1358.18 253.747V319.735L1358.56 319.954V320.883V321.266H1358.95L1417.85 355.326H1418.23H1418.62V287.588L1445.77 271.898L1477.14 253.911C1477.52 253.911 1477.52 253.528 1477.14 253.528L1476.76 253.146H1476.37L1417.85 286.823L1359.33 253.146V185.791L1408.29 157.471L1417.09 152.496V218.32C1417.09 218.703 1417.09 218.703 1417.47 218.703C1417.85 218.703 1417.85 218.703 1417.85 218.32V150.583L1447.3 133.744L1476.76 116.905V116.523V48.4025V48.0198H1476.37L1417.85 14.3424V-52.6296L1475.99 -18.9522H1476.37H1476.76V-19.3349L1418.23 -53.0123V-121.132C1418.23 -121.324 1418.23 -121.419 1418.19 -121.467C1418.14 -121.515 1418.04 -121.515 1417.85 -121.515C1417.47 -121.515 1417.47 -121.515 1417.47 -121.132V-53.395L1358.95 -19.7176L1339.44 -30.8158L1300.43 -53.395H1300.04H1299.66L1241.14 -19.7176L1215.13 -34.6428L1182.62 -53.395V-121.132L1241.14 -154.81C1241.52 -154.81 1241.52 -155.192 1241.14 -155.192C1241.14 -155.575 1240.76 -155.575 1240.76 -155.192L1181.09 -121.515V-121.132V-53.7777L1122.95 -87.8377H1122.56L1063.66 -53.7777V13.9597L1005.52 47.2544V-19.3349C1005.52 -19.5263 1005.52 -19.622 1005.47 -19.6698C1005.42 -19.7176 1005.33 -19.7176 1005.14 -19.7176C1004.95 -19.7176 1004.85 -19.7176 1004.8 -19.6698C1004.75 -19.622 1004.75 -19.5263 1004.75 -19.3349V48.4025L977.596 64.0931L946.232 82.0799L887.709 48.4025V47.9971L838.627 19.3659L829.187 13.9597H828.804L769.9 48.0198V115.757L711.377 149.435L652.855 115.757H652.473V116.14L710.612 149.817L652.09 183.495V183.877V251.232L593.95 217.937V150.583V150.2V82.4626C593.95 82.0799 593.95 82.0799 593.568 82.0799C593.377 82.0799 593.281 82.0799 593.233 82.1277C593.185 82.1755 593.185 82.2711 593.185 82.4622V82.4626V150.2L534.663 183.877L476.523 150.583L534.663 116.905C535.046 116.905 535.046 116.523 534.663 116.523C534.663 116.14 534.281 116.14 534.281 116.523L475.376 150.583L417.236 184.04L359.096 150.583L358.853 150.723L357.949 150.2H357.566L300.192 183.877L241.669 150.2H241.287C240.904 150.2 240.904 150.583 241.287 150.583ZM358.853 150.723L300.574 184.26V251.232L358.714 217.555H359.096L417.619 251.232V184.26L417.236 184.04L416.854 184.26L358.853 150.723ZM1358.56 319.954L1416.32 353.03V286.058L1358.18 252.763V253.747L1358.56 253.528V319.954ZM798.523 471.71L829.187 489.27L887.327 455.975L829.187 422.68L771.431 455.756L771.812 455.975H772.195L798.523 471.71ZM752.918 445.103L713.29 422.298L713.193 422.353L712.143 421.752L712.525 421.532V354.999L769.9 387.855V454.827L752.918 445.103ZM710.995 353.297V286.058L652.855 252.763V320.118L653.763 320.638L654.003 320.5L710.995 353.297ZM476.906 354.178L535.046 320.883L593.185 354.178L535.046 387.472L476.906 354.178ZM418.384 251.997L476.141 218.703L534.281 251.997L517.068 261.948L476.141 285.292L418.384 251.997ZM712.142 353.795L729.355 343.845L770.282 320.5L828.422 353.795L770.282 387.09L712.142 353.795ZM770.665 455.21V388.238L828.804 354.943V421.915L770.665 455.21ZM828.804 82.4626V149.435L770.665 116.14V49.1679L828.804 82.4626ZM769.9 184.643V251.615L711.76 218.32V151.348L769.9 184.643ZM593.568 286.44V353.412L535.428 320.118V252.763L593.568 286.44ZM476.906 217.937V150.965L535.046 184.26V251.232L476.906 217.937ZM536.193 251.997L594.333 218.703L652.473 251.997L635.26 261.948L594.333 285.292L536.193 251.997ZM653.62 251.997L711.76 218.703L769.9 251.997L711.76 285.292L653.62 251.997ZM887.327 184.643V251.615L829.187 218.32V151.348L887.327 184.643ZM1004.75 251.232L946.614 217.937V150.965L1004.75 184.26V251.232ZM888.092 184.643L945.849 151.348V218.32L888.092 251.615V184.643ZM770.665 184.643L828.422 151.348V218.32L770.665 251.615V184.643ZM888.092 49.1679L946.232 82.4626V149.435L888.092 116.14V49.1679ZM980.656 131.065L1005.14 116.905L1062.89 150.2L1005.14 183.877L946.996 150.583L980.656 131.065ZM1063.66 150.965V217.937L1005.9 251.232V184.26L1057.92 154.027L1063.66 150.965ZM1004.37 251.997L946.232 285.292L888.474 251.997L946.614 218.703L1004.37 251.997ZM946.232 353.412L888.092 320.118V252.763L946.232 286.058V353.412ZM887.327 319.735L828.804 353.412L770.282 319.735V252.763L828.422 286.44H828.804H829.187V286.058L771.047 252.38L829.187 219.086L887.709 252.763V319.735H887.327ZM761.102 325.093L712.142 353.412V286.44L727.06 277.638L769.9 252.763V319.735L761.102 325.093ZM652.473 319.735L594.333 353.03V286.058L611.928 275.725L652.09 252.38V319.735H652.473ZM712.142 150.2L770.282 116.905L828.422 150.2L770.282 183.495L712.142 150.2ZM863.229 62.945L887.327 49.1679V116.523V116.905H887.709L945.849 150.583L888.092 183.877L829.569 150.2V82.4626L863.229 62.945ZM971.859 68.3028L1005.14 49.1679V116.14L971.094 135.658L946.996 149.435V82.4626L971.859 68.3028ZM1092.35 66.3893L1122.56 49.1679V116.14L1088.52 135.658L1064.42 149.435L1006.28 116.14V48.7852H1005.9L1064.42 15.1078L1122.56 48.4025L1100.38 61.4142L1064.42 82.0799V82.4626L1092.35 66.3893ZM1181.85 353.412V286.44L1189.5 281.848L1239.61 252.763V319.735L1181.85 353.412ZM1416.7 15.1078L1474.84 48.4025L1416.7 81.6972L1358.56 48.4025L1386.1 32.3292L1416.7 15.1078ZM1240.76 251.232V184.26L1289.33 156.323L1298.9 150.965V217.937L1240.76 251.232ZM1209.77 134.509L1240.37 116.905L1298.51 150.2L1240.76 183.495L1182.62 150.2L1209.77 134.509ZM1156.99 29.2676L1181.47 15.1078L1239.61 48.4025L1181.47 81.6972L1123.71 48.4025L1156.99 29.2676ZM1298.9 82.4626V149.435L1240.76 116.14V49.1679L1298.9 82.4626ZM1181.85 217.937V150.965L1239.99 184.26V251.232L1207.48 232.48L1181.85 217.937ZM1181.47 149.817L1122.95 116.14V49.1679L1163.49 72.5125L1181.09 82.8453H1181.47L1239.61 49.1679V116.14L1212.45 131.831L1181.47 149.817ZM1123.33 47.6371V-19.3349L1181.47 -52.6296V14.3424L1147.43 33.86L1123.33 47.6371ZM1231.19 256.973L1181.85 285.675L1124.09 252.38L1172.29 224.443L1182.23 218.703L1240.37 251.997L1231.19 256.973ZM1123.33 184.643L1181.47 151.348V218.32L1132.51 246.64L1123.71 251.615V184.643H1123.33ZM1064.42 14.3424V-52.6296L1122.56 -19.3349V47.6371L1064.42 14.3424ZM1181.85 -52.6296L1239.99 -19.3349V47.6371L1181.85 14.3424V-52.6296ZM1240.76 47.6371V-19.3349L1298.9 -52.6296V14.3424L1264.85 33.86L1240.76 47.6371ZM1299.66 -52.6296L1357.8 -19.3349V48.0198L1323.76 67.5374L1299.28 81.6972L1241.14 48.4025L1269.83 31.5638L1299.28 14.7252V14.3424V-52.6296H1299.66ZM1416.32 149.435L1358.18 116.14V49.1679L1416.32 82.4626V149.435ZM1330.26 131.831L1299.66 149.435V82.4626L1333.7 62.945L1357.8 49.1679V116.14L1330.26 131.831ZM1416.32 -52.6296V14.3424L1393.75 27.3542L1358.56 47.6371V-19.3349L1416.32 -52.6296ZM1441.18 135.658L1417.09 149.435V82.4626L1459.93 57.5872L1475.23 48.7852V115.757L1441.18 135.658ZM1367.74 178.137L1357.8 183.877L1345.56 176.989L1299.66 150.583L1327.2 134.509L1357.8 116.905L1415.56 150.2L1367.74 178.137ZM1357.42 251.232L1318.78 229.036L1299.28 217.937V150.965L1311.14 157.854L1357.42 184.643V251.232ZM1339.06 262.713L1298.9 286.058V286.44V353.795L1240.76 320.5V253.146L1299.28 219.468L1314.58 228.27L1357.03 252.763L1339.06 262.713ZM1182.23 353.795L1240.37 320.5L1298.51 353.795L1240.37 387.09L1182.23 353.795ZM1181.09 353.412L1122.95 320.118V252.763L1181.09 286.058V353.412ZM1111.09 258.503L1064.04 285.675L1006.28 252.38L1056.77 223.295L1064.81 218.703V218.32V150.583L1098.85 131.065L1123.33 116.905L1181.47 150.2L1138.63 174.693L1122.95 183.877V184.26V251.997L1122.18 252.417V252.38L1121.04 253.041L1111.09 258.503ZM1121.04 253.041L1122.18 252.417V319.735H1122.56L1064.42 353.03V286.058L1082.02 275.725L1121.04 253.041ZM1063.66 353.412L1005.52 320.118V252.763L1063.66 286.058V353.412ZM887.327 455.21L829.187 421.915V354.943L887.327 388.238V455.21ZM476.906 353.412V286.44L494.501 276.107L534.663 252.763V319.735L483.791 349.203L476.906 353.412ZM476.141 150.965V217.937L418.384 251.232V184.26L476.141 150.965ZM593.568 150.965V217.937L535.428 251.232V184.26L580.563 158.237L593.568 150.965ZM653.238 184.643L710.995 151.348V218.32L653.238 251.615V184.643ZM829.187 15.1078L887.327 48.4025L854.049 67.9201L829.569 82.0799L771.43 48.7852L829.187 15.1078ZM1122.95 -86.6897L1181.09 -53.395L1122.95 -20.1003L1064.81 -53.395L1122.95 -86.6897ZM1004.75 319.735L946.614 353.03V286.058L953.881 281.848L1004.37 252.763V319.735H1004.75ZM476.141 353.412L418.001 320.118V252.763L476.141 286.058V353.412ZM359.096 285.675L300.957 252.38L358.714 219.086L416.854 252.38L359.096 285.675Z" fill="url(#paint0_linear_1604_12590)"/>
</g>
<defs>
<linearGradient id="paint0_linear_1604_12590" x1="241.031" y1="167.279" x2="824.963" y2="167.279" gradientUnits="userSpaceOnUse">
<stop stop-color="white"/>
<stop offset="1" stop-color="#8BC7FF"/>
</linearGradient>
<clipPath id="clip0_1604_12590">
<rect width="1104" height="211" fill="white"/>
</clipPath>
</defs>
</svg>
