<svg width="113" height="38" viewBox="0 0 113 38" fill="none" xmlns="http://www.w3.org/2000/svg">
<path d="M30.6967 26.207V13.6494H25.8896V10.96H38.3838V13.6494H33.5767V26.207H30.6967Z" fill="white"/>
<path d="M40.0853 26.207V10.96H50.0383V13.6494H42.9653V16.9106H48.7677V19.6H42.9653V23.5176H50.0383V26.207H40.0853Z" fill="white"/>
<path d="M51.3056 26.207L56.4303 18.4988L51.4538 10.96H54.9903L58.2303 16.0423L61.4279 10.96H64.9856L60.0091 18.4988L65.1126 26.207H61.5762L58.2303 20.9553L54.8632 26.207H51.3056Z" fill="white"/>
<path d="M65.7453 26.207V23.8141C66.07 23.8353 66.3453 23.807 66.5712 23.7294C66.797 23.6517 66.9876 23.5106 67.1429 23.3058C67.3053 23.0941 67.4464 22.8047 67.5664 22.4376C67.6864 22.0635 67.7994 21.5976 67.9053 21.04C68.0747 20.1576 68.2159 19.2294 68.3288 18.2553C68.4488 17.2741 68.5476 16.3141 68.6253 15.3753C68.7029 14.4364 68.7629 13.5823 68.8053 12.8129C68.8476 12.0364 68.8794 11.4188 68.9006 10.96H79.2982V26.207H76.4182V13.6494H71.5476C71.5194 14.0447 71.4806 14.56 71.4312 15.1953C71.3888 15.8306 71.3288 16.5329 71.2512 17.3023C71.1735 18.0717 71.0782 18.8694 70.9653 19.6953C70.8523 20.5211 70.7147 21.3223 70.5523 22.0988C70.4041 22.8541 70.2241 23.5247 70.0123 24.1106C69.8006 24.6894 69.5182 25.1658 69.1653 25.54C68.8194 25.907 68.3712 26.1506 67.8206 26.2706C67.27 26.3906 66.5782 26.3694 65.7453 26.207Z" fill="white"/>
<path d="M81.214 26.207L85.8729 10.96H90.1717L94.8305 26.207H91.8658L87.7152 12.76H88.2658L84.1787 26.207H81.214ZM84.0093 23.0306V20.3411H92.0564V23.0306H84.0093Z" fill="white"/>
<path d="M96.7283 26.207V10.96H107.189V13.6494H99.6083V16.5506H103.166C103.307 16.5506 103.505 16.5576 103.759 16.5717C104.013 16.5788 104.239 16.5929 104.437 16.6141C105.312 16.7058 106.039 16.9776 106.618 17.4294C107.204 17.8741 107.641 18.4423 107.931 19.1341C108.227 19.8188 108.375 20.567 108.375 21.3788C108.375 22.1906 108.231 22.9423 107.941 23.6341C107.652 24.3188 107.214 24.887 106.628 25.3388C106.049 25.7835 105.319 26.0517 104.437 26.1435C104.239 26.1647 104.013 26.1823 103.759 26.1964C103.512 26.2035 103.314 26.207 103.166 26.207H96.7283ZM99.6083 23.5176H103.039C103.187 23.5176 103.349 23.5106 103.526 23.4964C103.702 23.4823 103.865 23.4611 104.013 23.4329C104.599 23.3058 104.987 23.0341 105.178 22.6176C105.375 22.2011 105.474 21.7882 105.474 21.3788C105.474 20.9623 105.375 20.5494 105.178 20.14C104.987 19.7235 104.599 19.4517 104.013 19.3247C103.865 19.2894 103.702 19.2682 103.526 19.2611C103.349 19.247 103.187 19.24 103.039 19.24H99.6083V23.5176Z" fill="white"/>
<path fill-rule="evenodd" clip-rule="evenodd" d="M16.5174 2.13497C16.3651 2.21545 16.216 2.36879 16.1341 2.5294C16.0232 2.74675 16 2.9225 16 3.54494L15.9999 4.29767L15.2664 4.48001C13.9659 4.8033 12.6037 5.36801 11.3633 6.09807L10.7207 6.47629L10.1415 5.90938C9.6892 5.46682 9.50647 5.33208 9.308 5.29487C8.79267 5.19813 8.67633 5.28314 6.95693 7.0124C5.2454 8.73373 5.20127 8.79513 5.29927 9.3177C5.33387 9.50205 5.48113 9.6996 5.91313 10.1411L6.4814 10.7219L6.13547 11.2946C5.9452 11.6096 5.62907 12.205 5.43287 12.6177C5.04473 13.4344 4.5258 14.9194 4.397 15.5818L4.316 15.9985H3.55533C2.92453 15.9985 2.74973 16.0215 2.5316 16.1327C2.3622 16.2191 2.2206 16.3608 2.1342 16.5302C2.00773 16.7782 2 16.9199 2 18.9987C2 21.0776 2.00773 21.2193 2.1342 21.4673C2.2206 21.6367 2.3622 21.7784 2.5316 21.8648C2.74973 21.976 2.92453 21.999 3.55533 21.999H4.316L4.397 22.4157C4.5258 23.0781 5.04473 24.5631 5.43287 25.3798C5.62907 25.7924 5.9452 26.3879 6.13547 26.7028L6.4814 27.2756L5.91313 27.8564C5.4692 28.3101 5.33433 28.4929 5.29713 28.6915C5.20047 29.2066 5.2856 29.3232 7.01453 31.0445C8.386 32.4099 8.67073 32.6631 8.87813 32.7011C9.3282 32.7836 9.52893 32.6862 10.1413 32.0876L10.7159 31.5259L11.5281 31.9913C12.7791 32.7081 14.1929 33.2737 15.4833 33.5736L16 33.6936V34.4494C16 35.0753 16.0231 35.2505 16.1342 35.4684C16.2206 35.6378 16.3622 35.7794 16.5316 35.8658C16.7796 35.9923 16.9213 36 19 36C21.0787 36 21.2204 35.9923 21.4684 35.8658C21.6378 35.7794 21.7794 35.6378 21.8658 35.4684C21.9957 35.2136 22 35.0823 22 31.3393V27.4732L21.65 27.593C21.4575 27.659 21.03 27.7696 20.7 27.8389C19.885 28.01 18.1441 28.013 17.3333 27.8447C15.4557 27.4549 13.9798 26.6572 12.632 25.3036C12.2279 24.8979 11.7481 24.3408 11.5657 24.0658C10.8855 23.0402 10.4105 21.8959 10.1543 20.6655C9.99053 19.8791 9.99053 18.1184 10.1543 17.332C10.4105 16.1016 10.8855 14.9573 11.5657 13.9317C11.7481 13.6567 12.2279 13.0982 12.632 12.6908C13.9691 11.3424 15.4474 10.5443 17.3333 10.1528C18.1441 9.98448 19.885 9.98748 20.7 10.1586C21.03 10.2279 21.4575 10.3385 21.65 10.4044L22 10.5243V6.65824C22 2.91523 21.9957 2.78389 21.8658 2.52914C21.7794 2.35972 21.6378 2.21811 21.4684 2.13171C21.2199 2.00496 21.0819 1.99763 18.986 2.00043C16.9082 2.00323 16.7507 2.01176 16.5174 2.13497Z" fill="white" fill-opacity="0.2" stroke="white"/>
</svg>
